<svg xmlns="http://www.w3.org/2000/svg" viewBox="0 0 32 32" width="32" height="32">
  <defs>
    <clipPath id="circle-clip">
      <circle cx="16" cy="16" r="16"/>
    </clipPath>
  </defs>
  <circle cx="16" cy="16" r="16" fill="#28a745"/>
  <path d="M8 12c0-1.1.9-2 2-2 .8 0 1.5.7 1.5 1.5v1c0 .8-.7 1.5-1.5 1.5-.7 0-1.5-.7-1.5-.7V8c0-.8.7-1.5 1.5-1.5S8.8 5 8 5v6c0 1.1.9 2 2 .8 0 1.5.7 1.5 1.5v1c0 .8-.7 1.5-1.5 1.5-.7 0-1.5-.7-1.5-.7V8c0-.8.7-1.5 1.5-1.5zm8 4c-.6 0-1-.4-1-1s.4-1 1-1 1 .4 1 1 1-.4 1-1-1-1-.4-1-1-1zm4-4c-.6 0-1-.4-1-1s.4-1 1-1 1 .4 1 1 1-.4 1-1-1-1-.4-1-1-1z" fill="white"/>
  <circle cx="24" cy="10" r="2" fill="white"/>
  <path d="M21 15l-5-5-5 5v6l5-5z" fill="white"/>
</svg>
